<svg width="35" height="35" viewBox="0 0 35 35" fill="none" xmlns="http://www.w3.org/2000/svg"><circle cx="17.204" cy="17.041" r="17.041" fill="#fff"/><path d="M23.683 18.71v4.956h-2.715v-4.59c0-1.1-.362-2.019-1.448-2.019-.724 0-1.267.551-1.448 1.102 0 .183-.181.367-.181.734v4.773h-2.716v-8.444h2.716v1.101c.362-.55 1.086-1.468 2.534-1.468 1.81 0 3.258 1.285 3.258 3.854zM12.28 11c-.905 0-1.63.55-1.63 1.469 0 .734.544 1.468 1.63 1.468.905 0 1.63-.734 1.63-1.468-.182-.918-.725-1.469-1.63-1.469zm-1.448 12.482h2.715v-8.444h-2.715v8.444z" fill="#1C1D32"/></svg>