<svg width="35" height="35" viewBox="0 0 35 35" fill="none" xmlns="http://www.w3.org/2000/svg"><circle cx="17.041" cy="17.041" r="17.041" fill="#fff"/><path d="M20.892 9h-1.991c-2.172 0-3.62 1.469-3.62 3.671v1.652h-1.81c-.182 0-.363.184-.363.367v2.57c0 .184.181.367.362.367h1.991v6.241c0 .184.182.367.363.367h2.534c.18 0 .362-.183.362-.367v-6.424h2.353c.181 0 .362-.184.362-.367v-2.754h-2.534v-1.468c0-.735.18-1.102 1.086-1.102h1.267c.181 0 .362-.183.362-.367V9.184C21.254 9 21.073 9 20.892 9z" fill="#1C1D32"/></svg>