<svg width="35" height="35" viewBox="0 0 35 35" fill="none" xmlns="http://www.w3.org/2000/svg"><circle cx="17.122" cy="17.041" r="17.041" fill="#fff"/><path d="M17.123 9c-2.492 0-2.805.011-3.783.056-.977.046-1.644.202-2.227.432a4.487 4.487 0 00-1.626 1.073 4.575 4.575 0 00-1.059 1.649c-.227.591-.382 1.268-.426 2.258-.044.992-.055 1.31-.055 3.836 0 2.527.01 2.844.055 3.836.045.99.2 1.667.426 2.258a4.567 4.567 0 001.059 1.649c.51.517 1.021.836 1.624 1.073.584.23 1.251.387 2.228.433.979.045 1.291.056 3.783.056s2.804-.011 3.783-.056c.977-.046 1.644-.203 2.228-.433a4.482 4.482 0 001.624-1.073 4.576 4.576 0 001.06-1.649c.225-.591.38-1.268.426-2.258.044-.992.055-1.309.055-3.836 0-2.526-.011-2.844-.055-3.836-.046-.99-.201-1.667-.427-2.258a4.575 4.575 0 00-1.059-1.649 4.478 4.478 0 00-1.625-1.073c-.585-.23-1.252-.386-2.229-.432C19.925 9.011 19.613 9 17.12 9h.003zm-.823 1.677h.823c2.45 0 2.74.009 3.708.053.895.042 1.38.193 1.704.32.428.17.733.37 1.054.697.321.325.52.635.687 1.07.125.327.275.82.316 1.727.044.98.053 1.275.053 3.758s-.01 2.778-.053 3.759c-.041.907-.19 1.4-.316 1.727a2.88 2.88 0 01-.687 1.069 2.833 2.833 0 01-1.054.696c-.323.128-.81.279-1.704.32-.967.045-1.258.055-3.708.055s-2.74-.01-3.708-.055c-.894-.042-1.38-.193-1.704-.32a2.837 2.837 0 01-1.055-.696 2.887 2.887 0 01-.686-1.07c-.126-.327-.276-.82-.316-1.727-.044-.98-.053-1.275-.053-3.76s.009-2.778.053-3.759c.04-.907.19-1.4.316-1.727a2.88 2.88 0 01.686-1.07 2.844 2.844 0 011.055-.696c.324-.128.81-.28 1.704-.321.847-.039 1.175-.05 2.885-.053v.003zm5.721 1.545c-.608 0-1.1.5-1.1 1.116a1.11 1.11 0 001.1 1.116c.608 0 1.101-.5 1.101-1.116a1.11 1.11 0 00-1.1-1.117zm-4.898 1.304c-2.602 0-4.712 2.14-4.712 4.778 0 2.64 2.11 4.778 4.712 4.778s4.712-2.139 4.712-4.778c0-2.638-2.11-4.778-4.712-4.778zm0 1.677c1.69 0 3.059 1.389 3.059 3.101 0 1.713-1.37 3.102-3.059 3.102-1.69 0-3.059-1.389-3.059-3.102 0-1.712 1.37-3.101 3.06-3.101z" fill="#1C1D32"/></svg>