<svg width="33" height="33" viewBox="0 0 33 33" fill="none" xmlns="http://www.w3.org/2000/svg"><path d="M16.399.119c2.114 0 4.228-.007 6.342.002 1.223.006 2.423.175 3.58.606a9.686 9.686 0 014.434 3.305c.872 1.155 1.48 2.441 1.75 3.867.14.735.239 1.49.243 2.236.024 4.369.024 8.737.013 13.106-.005 2.041-.541 3.937-1.676 5.637-.72 1.077-1.613 1.995-2.701 2.687-.562.358-1.195.598-1.786.91-.627.332-1.311.352-1.984.357-5.076.03-10.152.051-15.228.052-.846 0-1.708-.025-2.53-.196-.675-.14-1.325-.472-1.944-.799-.77-.407-1.455-.956-2.062-1.59C1.173 28.55.21 26.471.06 24.026a32.653 32.653 0 01-.052-1.954C.006 18.11-.015 14.15.02 10.19c.032-3.491 1.415-6.317 4.265-8.338C5.728.828 7.35.22 9.12.182 11.545.133 13.972.17 16.399.17V.119zm-.034 29.863h6.342c.9 0 1.78-.106 2.63-.44a6.466 6.466 0 002.707-1.987c1.027-1.27 1.472-2.749 1.471-4.382-.002-3.47.01-6.942.006-10.413-.002-1.141.013-2.285-.06-3.423-.104-1.634-.82-3-1.984-4.124-1.31-1.265-2.895-1.816-4.689-1.815-4.12.003-8.24-.003-12.36.006-.58.001-1.167.023-1.739.11-1.64.246-2.965 1.072-4.004 2.366-1.026 1.277-1.445 2.76-1.44 4.392.012 3.489.006 6.978.014 10.468.002 1.078-.017 2.159.053 3.233.122 1.86.964 3.367 2.378 4.545 1.216 1.013 2.633 1.464 4.2 1.464h6.475z" fill="#FBB040"/><path d="M16.38 25.222c-4.643.032-8.441-3.853-8.435-8.534.007-4.674 3.814-8.54 8.446-8.537 4.637.004 8.434 3.881 8.434 8.548 0 4.69-3.812 8.562-8.445 8.523zm.004-13.829c-2.848 0-5.22 2.399-5.224 5.28-.003 2.883 2.361 5.284 5.213 5.295 2.854.01 5.243-2.406 5.238-5.298-.006-2.881-2.38-5.278-5.227-5.277zm10.472-3.217c-.004 1.118-.87 2.004-1.97 2.012-1.095.008-1.993-.908-1.988-2.028.006-1.122.9-2.017 2.005-2.006 1.099.011 1.957.9 1.953 2.022z" fill="#FBB040"/></svg>