<svg width="40" height="33" viewBox="0 0 40 33" fill="none" xmlns="http://www.w3.org/2000/svg"><g clip-path="url(#clip0)" fill="#FBB040"><path d="M38.054 30.77a.639.639 0 00.456-.187.599.599 0 00.17-.45c0-.451-.28-.667-.858-.667h-.931v2.363h.35V30.8h.43l.01.013.669 1.017h.375l-.72-1.053.049-.006zm-.406-.237h-.406v-.8h.515c.266 0 .57.043.57.38 0 .389-.307.42-.68.42m-8.737-2.726h-4.97v-7.54c0-1.8-.032-4.114-2.584-4.114-2.588 0-2.984 1.96-2.984 3.982v7.672h-4.97V12.299h4.77v2.12h.068a5.157 5.157 0 011.996-1.884 5.365 5.365 0 012.71-.622c5.038 0 5.967 3.21 5.967 7.387l-.003 8.507zM7.794 10.18a2.95 2.95 0 01-1.602-.47A2.816 2.816 0 015.13 8.455a2.714 2.714 0 01-.165-1.615c.111-.542.386-1.04.79-1.43a2.898 2.898 0 011.476-.766 2.97 2.97 0 011.666.159c.527.211.978.57 1.294 1.029a2.718 2.718 0 01.267 2.622 2.79 2.79 0 01-.624.906 2.88 2.88 0 01-.936.606c-.35.14-.725.213-1.104.213zm2.485 17.628H5.304V12.3h4.975v15.508zM31.39.118H2.806A2.49 2.49 0 001.07.793a2.337 2.337 0 00-.737 1.668V30.27c.008.628.273 1.229.737 1.668.464.44 1.089.683 1.738.677h28.581a2.497 2.497 0 001.743-.675c.466-.44.733-1.04.742-1.67V2.459a2.342 2.342 0 00-.742-1.67 2.496 2.496 0 00-1.743-.673"/><path d="M37.69 28.413a2.324 2.324 0 00-1.606.66c-.424.418-.661.98-.658 1.567a2.18 2.18 0 00.674 1.56 2.325 2.325 0 001.613.645c.605 0 1.185-.232 1.613-.645A2.18 2.18 0 0040 30.64a2.181 2.181 0 00-.658-1.567 2.324 2.324 0 00-1.607-.66h-.044zm0 4.179a2.053 2.053 0 01-1.119-.31 1.961 1.961 0 01-.753-.86 1.888 1.888 0 01-.134-1.12c.071-.379.256-.728.532-1.005a2.06 2.06 0 012.178-.456c.369.141.686.385.912.701.226.316.35.69.357 1.074v.033a1.87 1.87 0 01-.545 1.356 1.99 1.99 0 01-1.375.585h-.052"/></g><defs><clipPath id="clip0"><path fill="#fff" transform="translate(.334 .116)" d="M0 0h39.667v32.768H0z"/></clipPath></defs></svg>