<svg width="230" height="38" viewBox="0 0 230 38" fill="none" xmlns="http://www.w3.org/2000/svg"><path d="M4.437.542l7.43 19.325L19.402.542h4.437L11.78 30.522 0 .543h4.437zM39.83 20.59H27.684c.105 1.444.557 2.594 1.357 3.449.8.843 1.828 1.264 3.08 1.264.975 0 1.781-.24 2.419-.722.626-.482 1.34-1.373 2.14-2.673l3.306 1.914c-.51.903-1.05 1.68-1.618 2.33a9.051 9.051 0 01-1.827 1.59c-.65.409-1.351.71-2.105.902a9.894 9.894 0 01-2.454.29c-2.529 0-4.559-.843-6.09-2.53-1.531-1.697-2.297-3.948-2.297-6.754 0-2.781.742-5.033 2.227-6.755 1.497-1.697 3.48-2.546 5.951-2.546 2.494 0 4.466.825 5.917 2.474 1.438 1.638 2.157 3.907 2.157 6.81l-.017.956zm-4.02-3.324c-.545-2.167-1.862-3.25-3.95-3.25-.475 0-.922.078-1.34.234-.417.145-.8.361-1.148.65a4.012 4.012 0 00-.87 1.012c-.244.397-.43.848-.557 1.354h7.865zm12.668-2.636v13.798h-3.915V14.629h-1.67v-3.793h1.67V4.39h3.915v6.447h3.045v3.793h-3.045zm5.707-3.794H58.1v1.572c.72-.783 1.358-1.319 1.914-1.608.569-.3 1.242-.451 2.019-.451 1.032 0 2.111.349 3.236 1.047l-1.792 3.72c-.742-.553-1.467-.83-2.175-.83-2.135 0-3.202 1.674-3.202 5.021v9.12h-3.915v-17.59zm17.801 0v17.592H68.07V10.837h3.915zm-4.507-7.314c0-.71.25-1.325.748-1.842.5-.518 1.097-.777 1.793-.777.707 0 1.31.259 1.81.777.498.505.748 1.125.748 1.86 0 .734-.25 1.36-.749 1.878a2.366 2.366 0 01-1.792.777 2.42 2.42 0 01-1.81-.777c-.498-.517-.748-1.15-.748-1.896zm9.466 7.314h3.933v1.626c1.368-1.409 2.911-2.113 4.628-2.113 1.972 0 3.51.644 4.611 1.932.951 1.096 1.427 2.884 1.427 5.364v10.783h-3.932v-9.825c0-1.734-.232-2.932-.696-3.594-.453-.675-1.276-1.012-2.471-1.012-1.3 0-2.222.446-2.767 1.337-.534.879-.8 2.414-.8 4.605v8.489h-3.933V10.836zm32.052 0h3.932v17.592h-3.932v-1.842c-1.613 1.565-3.347 2.348-5.203 2.348-2.343 0-4.28-.88-5.812-2.637-1.52-1.794-2.28-4.034-2.28-6.72 0-2.636.76-4.833 2.28-6.591 1.52-1.758 3.422-2.637 5.708-2.637 1.972 0 3.741.843 5.307 2.528v-2.04zm-9.292 8.742c0 1.686.435 3.058 1.305 4.118.893 1.071 2.018 1.607 3.376 1.607 1.45 0 2.621-.518 3.515-1.553.893-1.072 1.339-2.432 1.339-4.082s-.446-3.01-1.339-4.082c-.894-1.047-2.054-1.57-3.481-1.57-1.345 0-2.47.529-3.375 1.589-.893 1.071-1.34 2.396-1.34 3.973zm43.727-5.671h11.102v.92c0 2.096-.238 3.95-.713 5.564-.464 1.493-1.247 2.89-2.35 4.19-2.494 2.914-5.666 4.37-9.518 4.37-3.758 0-6.977-1.408-9.657-4.226-2.68-2.83-4.019-6.225-4.019-10.186 0-4.046 1.363-7.477 4.089-10.295C135.092 1.414 138.409 0 142.319 0c2.099 0 4.06.446 5.881 1.337 1.74.89 3.451 2.335 5.133 4.334l-2.888 2.872c-2.204-3.046-4.89-4.57-8.057-4.57-2.842 0-5.226 1.018-7.151 3.053-1.926 1.998-2.889 4.503-2.889 7.513 0 3.106 1.073 5.665 3.219 7.676 2.007 1.866 4.182 2.8 6.526 2.8 1.995 0 3.787-.7 5.376-2.096 1.59-1.409 2.477-3.094 2.663-5.057h-6.7v-3.955zm15.469-3.071h3.916v1.572c.719-.783 1.357-1.319 1.914-1.608.568-.3 1.241-.451 2.018-.451 1.033 0 2.111.349 3.237 1.047l-1.793 3.72c-.742-.553-1.467-.83-2.175-.83-2.134 0-3.201 1.674-3.201 5.021v9.12h-3.916v-17.59zm12.216 8.67c0-2.54.875-4.702 2.627-6.484 1.752-1.782 3.886-2.673 6.404-2.673 2.528 0 4.674.897 6.438 2.69 1.74 1.795 2.61 3.998 2.61 6.611 0 2.637-.876 4.847-2.628 6.629-1.763 1.77-3.926 2.654-6.49 2.654-2.541 0-4.669-.903-6.386-2.709-1.717-1.782-2.575-4.021-2.575-6.718zm4.002.072c0 1.758.452 3.149 1.357 4.172.928 1.035 2.152 1.553 3.672 1.553 1.531 0 2.755-.512 3.671-1.535.916-1.023 1.375-2.39 1.375-4.1 0-1.71-.459-3.076-1.375-4.1-.928-1.035-2.152-1.553-3.671-1.553-1.497 0-2.709.518-3.637 1.553-.928 1.036-1.392 2.372-1.392 4.01zm22.151-8.742v10.097c0 2.913 1.107 4.37 3.323 4.37s3.324-1.457 3.324-4.37V10.836h3.915v10.187c0 1.409-.168 2.625-.505 3.648-.325.915-.887 1.74-1.688 2.474-1.322 1.192-3.004 1.788-5.046 1.788-2.03 0-3.706-.596-5.029-1.788-.812-.734-1.386-1.559-1.722-2.474-.325-.819-.487-2.035-.487-3.648V10.836h3.915zM216.689 38h-3.916V10.837h3.916v1.914c1.542-1.601 3.294-2.402 5.255-2.402 2.331 0 4.251.89 5.759 2.673 1.531 1.77 2.297 4.003 2.297 6.7 0 2.637-.76 4.835-2.279 6.593-1.509 1.745-3.411 2.618-5.708 2.618-1.984 0-3.758-.824-5.324-2.474V38zm9.309-18.26c0-1.685-.441-3.058-1.323-4.117-.893-1.072-2.018-1.608-3.375-1.608-1.439 0-2.605.518-3.498 1.553-.893 1.036-1.34 2.397-1.34 4.082 0 1.65.447 3.01 1.34 4.082.882 1.047 2.042 1.571 3.48 1.571 1.358 0 2.477-.53 3.359-1.59.904-1.059 1.357-2.383 1.357-3.973z" fill="#1C1D32"/></svg>