<svg width="189" height="44" viewBox="0 0 189 44" fill="none" xmlns="http://www.w3.org/2000/svg">
<path d="M54.6229 24.7762H56.1941L60.9823 34.9316L65.8453 24.7762H67.4165L61.1319 37.9217H60.8177L54.6229 24.7762Z" fill="white"/>
<path d="M76.9778 34.6938L78.1375 35.2455C77.7559 35.9266 77.3145 36.4715 76.8207 36.8938C76.3195 37.3093 75.7583 37.6294 75.1374 37.8474C74.5164 38.0653 73.8057 38.1743 73.0201 38.1743C71.2769 38.1743 69.9152 37.6567 68.9277 36.6146C67.9476 35.5725 67.4538 34.3941 67.4538 33.0864C67.4538 31.8536 67.8728 30.7502 68.7032 29.783C69.7581 28.557 71.1721 27.9372 72.9453 27.9372C74.7708 27.9372 76.2222 28.5638 77.3145 29.8239C78.0851 30.7161 78.4816 31.8195 78.4966 33.1545H68.8753C68.9052 34.2852 69.3017 35.2115 70.0649 35.9335C70.8355 36.6554 71.7781 37.0164 72.9079 37.0164C73.454 37.0164 73.9852 36.9279 74.494 36.7576C75.0102 36.5873 75.4441 36.3557 75.8107 36.0697C76.1698 35.7904 76.5589 35.3273 76.9778 34.6938ZM76.9778 32.0647C76.7908 31.3972 76.5289 30.866 76.1773 30.4641C75.8257 30.0622 75.3618 29.7421 74.7857 29.4969C74.2097 29.2517 73.6037 29.1291 72.9677 29.1291C71.9203 29.1291 71.015 29.4356 70.2594 30.0486C69.7057 30.4982 69.2943 31.1657 69.01 32.0647H76.9778Z" fill="white"/>
<path d="M81.0254 24.5721H82.4469V28.182H84.6166V29.2717H82.4469V37.9219H81.0254V29.2717H79.155V28.182H81.0254V24.5721Z" fill="white"/>
<path d="M86.1877 28.1824H87.6092V29.6059C88.0356 29.0474 88.4771 28.6251 88.9484 28.3458C89.4197 28.0666 89.906 27.9304 90.4223 27.9304C90.8038 27.9304 91.2153 28.0393 91.6567 28.2641L90.931 29.3198C90.6392 29.204 90.3923 29.1496 90.1978 29.1496C89.734 29.1496 89.2851 29.3198 88.8586 29.6672C88.4247 30.0078 88.103 30.5458 87.871 31.2678C87.699 31.8195 87.6092 32.9434 87.6092 34.6325V37.9291H86.1877V28.1824Z" fill="white"/>
<path d="M93.2128 24.1842C93.5271 24.1842 93.7964 24.2864 94.0134 24.4907C94.2378 24.695 94.3426 24.9402 94.3426 25.2263C94.3426 25.5056 94.2303 25.7508 94.0134 25.9483C93.7889 26.1526 93.5271 26.2548 93.2128 26.2548C92.9061 26.2548 92.6442 26.1526 92.4198 25.9483C92.1954 25.744 92.0906 25.5056 92.0906 25.2263C92.0906 24.9402 92.2028 24.695 92.4198 24.4907C92.6442 24.2864 92.9061 24.1842 93.2128 24.1842ZM92.547 28.1823H93.8937V37.9223H92.547V28.1823Z" fill="white"/>
<path d="M96.8115 28.1824H98.1582V29.926C98.7043 29.2585 99.3178 28.7613 99.9837 28.4276C100.65 28.0938 101.375 27.9304 102.161 27.9304C102.961 27.9304 103.665 28.1143 104.286 28.4821C104.899 28.8499 105.355 29.3471 105.655 29.9805C105.947 30.6071 106.096 31.5811 106.096 32.9093V37.9223H104.749V33.2771C104.749 32.1533 104.697 31.404 104.6 31.0294C104.443 30.3824 104.136 29.8988 103.68 29.5787C103.223 29.2517 102.64 29.0883 101.906 29.0883C101.076 29.0883 100.328 29.3403 99.6694 29.8375C99.0111 30.3415 98.5771 30.9613 98.3676 31.6969C98.233 32.1805 98.1731 33.066 98.1731 34.3465V37.9155H96.8264V28.1824H96.8115Z" fill="white"/>
<path d="M119.705 28.1824V37.9223H118.358V36.2468C117.782 36.887 117.146 37.3638 116.428 37.6907C115.717 38.0108 114.939 38.1743 114.094 38.1743C112.59 38.1743 111.311 37.6771 110.241 36.6759C109.171 35.6746 108.647 34.4622 108.647 33.0251C108.647 31.622 109.186 30.4232 110.256 29.4288C111.326 28.4344 112.62 27.9304 114.131 27.9304C115.007 27.9304 115.792 28.1006 116.496 28.4412C117.199 28.7818 117.82 29.2926 118.351 29.9737V28.1824H119.705ZM114.191 29.1496C113.428 29.1496 112.717 29.3198 112.074 29.6604C111.423 30.0009 110.907 30.4845 110.525 31.1044C110.144 31.7242 109.949 32.378 109.949 33.0728C109.949 33.7607 110.144 34.4146 110.525 35.0412C110.914 35.6678 111.431 36.1514 112.081 36.5056C112.732 36.853 113.428 37.03 114.176 37.03C114.932 37.03 115.643 36.8598 116.316 36.5124C116.989 36.165 117.506 35.7019 117.872 35.1093C118.239 34.5167 118.418 33.8561 118.418 33.1136C118.418 31.9898 118.014 31.043 117.199 30.287C116.391 29.531 115.388 29.1496 114.191 29.1496Z" fill="white"/>
<path d="M142.531 26.9767L141.409 27.9439C140.601 27.2219 139.718 26.677 138.761 26.3024C137.803 25.9278 136.868 25.7439 135.955 25.7439C134.818 25.7439 133.741 25.9959 132.716 26.5068C131.691 27.0108 130.898 27.6987 130.329 28.5705C129.768 29.4356 129.484 30.3551 129.484 31.3222C129.484 32.3099 129.775 33.2566 130.359 34.1421C130.942 35.0343 131.75 35.7359 132.775 36.2467C133.8 36.7575 134.93 37.0095 136.157 37.0095C137.646 37.0095 138.903 36.6281 139.928 35.8653C140.953 35.1024 141.566 34.1148 141.753 32.882H137.137V31.5879H143.384C143.369 33.6585 142.711 35.2727 141.394 36.4715C140.077 37.6702 138.319 38.2628 136.12 38.2628C133.449 38.2628 131.332 37.4318 129.768 35.7767C128.571 34.503 127.972 33.025 127.972 31.3495C127.972 30.103 128.316 28.9452 129.005 27.869C129.693 26.7928 130.636 25.9551 131.833 25.3489C133.03 24.7427 134.391 24.443 135.903 24.443C137.13 24.443 138.282 24.6473 139.359 25.0492C140.452 25.4442 141.506 26.0913 142.531 26.9767Z" fill="white"/>
<path d="M145.367 28.1824H146.788V29.6059C147.215 29.0474 147.656 28.6251 148.128 28.3458C148.599 28.0666 149.085 27.9304 149.601 27.9304C149.983 27.9304 150.395 28.0393 150.836 28.2641L150.11 29.3198C149.818 29.204 149.572 29.1496 149.377 29.1496C148.913 29.1496 148.464 29.3198 148.038 29.6672C147.604 30.0078 147.282 30.5458 147.058 31.2678C146.886 31.8195 146.796 32.9434 146.796 34.6325V37.9291H145.374V28.1824H145.367Z" fill="white"/>
<path d="M157.031 27.944C158.677 27.944 160.046 28.4889 161.123 29.5719C162.111 30.5595 162.597 31.731 162.597 33.0864C162.597 34.4486 162.073 35.6338 161.033 36.6486C159.993 37.6635 158.654 38.1743 157.023 38.1743C155.385 38.1743 154.038 37.6635 152.998 36.6486C151.958 35.6338 151.434 34.4418 151.434 33.0864C151.434 31.7378 151.928 30.5663 152.908 29.5787C154.008 28.4889 155.377 27.944 157.031 27.944ZM157.023 29.17C155.879 29.17 154.898 29.5514 154.075 30.3211C153.252 31.0907 152.841 32.0239 152.841 33.1137C152.841 33.8152 153.028 34.4759 153.402 35.0821C153.776 35.6883 154.285 36.1582 154.921 36.492C155.557 36.8257 156.26 36.9892 157.023 36.9892C157.786 36.9892 158.49 36.8257 159.126 36.492C159.761 36.1582 160.27 35.6883 160.644 35.0821C161.018 34.4759 161.205 33.8152 161.205 33.1137C161.205 32.0239 160.794 31.0907 159.971 30.3211C159.14 29.5514 158.16 29.17 157.023 29.17Z" fill="white"/>
<path d="M164.969 28.1824H166.315V32.7254C166.315 33.8356 166.383 34.5985 166.51 35.014C166.704 35.6133 167.086 36.0833 167.64 36.4307C168.193 36.7781 168.859 36.9483 169.622 36.9483C170.393 36.9483 171.044 36.7781 171.575 36.4443C172.113 36.1106 172.48 35.6678 172.682 35.1161C172.817 34.7415 172.892 33.9446 172.892 32.7254V28.1824H174.313V32.957C174.313 34.2988 174.141 35.3068 173.797 35.988C173.453 36.6691 172.936 37.2003 172.248 37.5818C171.56 37.9632 170.692 38.1607 169.652 38.1607C168.612 38.1607 167.744 37.97 167.041 37.5818C166.345 37.2003 165.822 36.6623 165.477 35.9743C165.133 35.2864 164.961 34.2511 164.961 32.8685V28.1824H164.969Z" fill="white"/>
<path d="M177.388 28.1824H178.735V29.9873C179.318 29.3062 179.947 28.7954 180.65 28.4548C181.353 28.1143 182.146 27.944 183.014 27.944C184.533 27.944 185.835 28.4412 186.912 29.4356C187.989 30.4301 188.536 31.6288 188.536 33.0319C188.536 34.4623 187.997 35.6815 186.927 36.6759C185.857 37.6771 184.563 38.1743 183.052 38.1743C182.199 38.1743 181.421 38.0109 180.702 37.6908C179.992 37.3706 179.341 36.887 178.727 36.2536V41.4573H177.38V28.1824H177.388ZM182.902 29.1496C181.712 29.1496 180.71 29.531 179.894 30.287C179.079 31.0431 178.675 31.983 178.675 33.1137C178.675 33.8493 178.854 34.5168 179.221 35.1093C179.58 35.7019 180.104 36.1651 180.777 36.5124C181.45 36.8598 182.169 37.0301 182.917 37.0301C183.658 37.0301 184.353 36.853 184.997 36.5056C185.648 36.1582 186.164 35.6678 186.553 35.0412C186.942 34.4146 187.129 33.7607 187.129 33.0728C187.129 32.3849 186.934 31.7242 186.553 31.1044C186.171 30.4846 185.655 30.001 185.012 29.6604C184.376 29.3199 183.673 29.1496 182.902 29.1496Z" fill="white"/>
<path d="M1.19702 16.0585H0V43.3031H1.19702V16.0585Z" fill="white"/>
<path d="M4.04004 16.0585H2.84302V43.3031H4.04004V16.0585Z" fill="white"/>
<path d="M10.0253 16.0585H7.93048V43.3031H10.0253V16.0585Z" fill="white"/>
<path d="M13.5416 16.0585H11.2224V43.3031H13.5416V16.0585Z" fill="white"/>
<path d="M15.7113 16.0585H15.1876V43.3031H15.7113V16.0585Z" fill="white"/>
<path d="M7.18231 16.0585H6.43414V43.3031H7.18231V16.0585Z" fill="white"/>
<path d="M17.8062 16.0585H17.2825V43.3031H17.8062V16.0585Z" fill="white"/>
<path d="M21.3225 16.0585H19.6766V43.3031H21.3225V16.0585Z" fill="white"/>
<path d="M24.0906 16.0585H22.5944V43.3031H24.0906V16.0585Z" fill="white"/>
<path d="M26.4847 16.0585H26.1855V43.3031H26.4847V16.0585Z" fill="white"/>
<path d="M28.1307 16.0585H27.7566V43.3031H28.1307V16.0585Z" fill="white"/>
<path d="M29.7767 16.0585H29.4026V43.3031H29.7767V16.0585Z" fill="white"/>
<path d="M31.4974 16.0585H31.1234V43.3031H31.4974V16.0585Z" fill="white"/>
<path d="M33.6671 16.0585H33.293V43.3031H33.6671V16.0585Z" fill="white"/>
<path d="M36.5848 16.0585H35.3878V43.3031H36.5848V16.0585Z" fill="white"/>
<path d="M38.6797 16.0585H37.4827V43.3031H38.6797V16.0585Z" fill="white"/>
<path d="M42.196 16.0585H40.4005V43.3031H42.196V16.0585Z" fill="white"/>
<path d="M44.5902 16.0585H42.8694V43.3031H44.5902V16.0585Z" fill="white"/>
<path d="M18.2101 1.31917C19.9982 1.22382 21.8986 2.34084 23.8438 4.64301C25.8039 6.9588 27.8314 10.5006 29.8589 15.173H30.8091C26.6344 5.48078 22.4672 0.569946 18.4271 0.569946C18.3373 0.569946 18.2401 0.569946 18.1503 0.576757C15.1577 0.733414 12.4045 3.49193 9.9505 8.77056C8.80582 11.243 8.00529 13.661 7.5564 15.1662H8.47663C8.8956 13.7699 9.68116 11.3997 10.781 9.0362C13.0628 4.12536 15.629 1.45539 18.2101 1.31917Z" fill="white"/>
<path d="M24.6368 0.569946C24.547 0.569946 24.4498 0.569946 24.36 0.576757C21.3673 0.733414 18.6141 3.49193 16.1602 8.77056C15.008 11.243 14.2149 13.661 13.7661 15.1662H14.6863C15.1127 13.7631 15.8983 11.3792 16.9981 9.01576C19.28 4.11855 21.8462 1.45539 24.4198 1.31917C26.2004 1.22382 28.1082 2.34084 30.0535 4.64301C32.0136 6.9588 34.0337 10.5006 36.0687 15.173H37.0188C32.8366 5.48078 28.6768 0.569946 24.6368 0.569946Z" fill="white"/>
</svg>
