<svg width="277" height="29" viewBox="0 0 277 29" fill="none" xmlns="http://www.w3.org/2000/svg">
<path d="M5.56976 5.5043V12.8618H12.0277C13.3107 12.8618 14.2729 12.7132 14.9144 12.4159C16.0493 11.8957 16.6168 10.8676 16.6168 9.33169C16.6168 7.67191 16.0678 6.55714 14.9699 5.98737C14.3531 5.66532 13.4279 5.5043 12.1943 5.5043H5.56976ZM13.3785 0.747925C15.2906 0.785084 16.7586 1.02043 17.7825 1.45395C18.8187 1.88747 19.6946 2.52537 20.4101 3.36765C21.0022 4.06128 21.471 4.82924 21.8164 5.67151C22.1618 6.51379 22.3345 7.47373 22.3345 8.55135C22.3345 9.85192 22.0076 11.1339 21.3538 12.3973C20.7 13.6483 19.6206 14.534 18.1156 15.0542C19.3739 15.562 20.2621 16.2866 20.7802 17.228C21.3106 18.157 21.5759 19.5814 21.5759 21.5013V23.3407C21.5759 24.5917 21.6252 25.4402 21.7239 25.8861C21.8719 26.5921 22.2173 27.1123 22.7601 27.4468V28.1342H16.4872C16.3145 27.5273 16.1912 27.038 16.1171 26.6664C15.9691 25.8985 15.8889 25.1119 15.8766 24.3068L15.8396 21.7614C15.8149 20.0149 15.4942 18.8506 14.8774 18.2685C14.2729 17.6863 13.1318 17.3952 11.4541 17.3952H5.56976V28.1342H0V0.747925H13.3785Z" fill="white"/>
<path d="M49.321 5.5972H34.8878V11.4126H48.1368V16.169H34.8878V23.2106H49.9872V28.1342H29.318V0.747925H49.321V5.5972Z" fill="white"/>
<path d="M76.141 0.747925V5.5972H67.9806V28.1342H62.2444V5.5972H54.047V0.747925H76.141Z" fill="white"/>
<path d="M86.0296 17.7854H92.9502L89.5454 7.00924L86.0296 17.7854ZM86.3812 0.747925H92.8206L102.48 28.1342H96.2994L94.5415 22.5046H84.4938L82.6063 28.1342H76.648L86.3812 0.747925Z" fill="white"/>
<path d="M113.072 28.1342H107.409V0.747925H113.072V28.1342Z" fill="white"/>
<path d="M120.296 0.747925H125.995V23.2106H139.503V28.1342H120.296V0.747925Z" fill="white"/>
<path d="M172.492 9.46175C172.492 8.03731 172.116 7.02163 171.363 6.4147C170.623 5.80776 169.581 5.5043 168.236 5.5043H162.926V13.5678H168.236C169.581 13.5678 170.623 13.2396 171.363 12.5831C172.116 11.9266 172.492 10.8862 172.492 9.46175ZM178.136 9.42459C178.136 12.6574 177.322 14.9427 175.693 16.2805C174.065 17.6182 171.74 18.287 168.717 18.287H162.926V28.1342H157.263V0.747925H169.143C171.882 0.747925 174.065 1.45395 175.693 2.866C177.322 4.27804 178.136 6.46424 178.136 9.42459Z" fill="white"/>
<path d="M190.005 5.5043V12.8618H196.463C197.745 12.8618 198.708 12.7132 199.349 12.4159C200.484 11.8957 201.052 10.8676 201.052 9.33169C201.052 7.67191 200.503 6.55714 199.405 5.98737C198.788 5.66532 197.863 5.5043 196.629 5.5043H190.005ZM197.813 0.747925C199.725 0.785084 201.193 1.02043 202.217 1.45395C203.254 1.88747 204.129 2.52537 204.845 3.36765C205.437 4.06128 205.906 4.82924 206.251 5.67151C206.597 6.51379 206.769 7.47373 206.769 8.55135C206.769 9.85192 206.442 11.1339 205.789 12.3973C205.135 13.6483 204.055 14.534 202.55 15.0542C203.809 15.562 204.697 16.2866 205.215 17.228C205.745 18.157 206.011 19.5814 206.011 21.5013V23.3407C206.011 24.5917 206.06 25.4402 206.159 25.8861C206.307 26.5921 206.652 27.1123 207.195 27.4468V28.1342H200.922C200.749 27.5273 200.626 27.038 200.552 26.6664C200.404 25.8985 200.324 25.1119 200.311 24.3068L200.274 21.7614C200.25 20.0149 199.929 18.8506 199.312 18.2685C198.708 17.6863 197.567 17.3952 195.889 17.3952H190.005V28.1342H184.435V0.747925H197.813Z" fill="white"/>
<path d="M218.804 28.1342H213.142V0.747925H218.804V28.1342Z" fill="white"/>
<path d="M231.561 5.5043V23.3779H236.816C239.506 23.3779 241.381 22.0463 242.442 19.3832C243.022 17.9216 243.311 16.1814 243.311 14.1624C243.311 11.3754 242.873 9.23879 241.998 7.75243C241.134 6.25367 239.407 5.5043 236.816 5.5043H231.561ZM237.779 0.747925C239.469 0.772698 240.875 0.97088 241.998 1.34247C243.91 1.97418 245.458 3.1323 246.642 4.81685C247.592 6.17936 248.24 7.65334 248.585 9.23879C248.931 10.8243 249.103 12.3354 249.103 13.7722C249.103 17.4138 248.375 20.498 246.92 23.0248C244.946 26.4311 241.899 28.1342 237.779 28.1342H226.029V0.747925H237.779Z" fill="white"/>
<path d="M275.479 5.5972H261.046V11.4126H274.295V16.169H261.046V23.2106H276.145V28.1342H255.476V0.747925H275.479V5.5972Z" fill="white"/>
</svg>
