<svg width="35" height="35" viewBox="0 0 35 35" fill="none" xmlns="http://www.w3.org/2000/svg">
<circle cx="17.1225" cy="17.0408" r="17.0408" fill="white"/>
<path d="M17.1232 9C14.6312 9 14.3184 9.01105 13.3397 9.05621C12.3628 9.10157 11.696 9.25839 11.1126 9.48848C10.5091 9.72613 9.99715 10.044 9.48712 10.5614C8.97672 11.0786 8.66321 11.5977 8.42808 12.2095C8.20059 12.8013 8.04575 13.4776 8.00178 14.4677C7.958 15.4602 7.94653 15.7775 7.94653 18.3044C7.94653 20.8314 7.95762 21.1475 8.00197 22.14C8.04689 23.1305 8.20155 23.8067 8.42827 24.3983C8.66283 25.0102 8.97633 25.5293 9.48655 26.0465C9.99639 26.5641 10.5083 26.8828 11.1114 27.1204C11.6953 27.3505 12.3622 27.5073 13.3389 27.5527C14.3176 27.5978 14.6302 27.6089 17.122 27.6089C19.6142 27.6089 19.926 27.5978 20.9048 27.5527C21.8816 27.5073 22.5492 27.3505 23.133 27.1204C23.7363 26.8828 24.2475 26.5641 24.7573 26.0465C25.2677 25.5293 25.5812 25.0102 25.8164 24.3985C26.0419 23.8067 26.1968 23.1303 26.2427 22.1402C26.2866 21.1477 26.2981 20.8314 26.2981 18.3044C26.2981 15.7775 26.2866 15.4604 26.2427 14.4679C26.1968 13.4774 26.0419 12.8013 25.8164 12.2096C25.5812 11.5977 25.2677 11.0786 24.7573 10.5614C24.2469 10.0438 23.7365 9.72594 23.1324 9.48848C22.5475 9.25839 21.8803 9.10157 20.9034 9.05621C19.9247 9.01105 19.6131 9 17.1203 9H17.1232ZM16.3 10.6767C16.5443 10.6764 16.8169 10.6767 17.1232 10.6767C19.5731 10.6767 19.8635 10.6857 20.831 10.7302C21.7256 10.7717 22.2112 10.9233 22.5346 11.0507C22.9629 11.2193 23.2681 11.4209 23.5891 11.7466C23.9103 12.0722 24.1091 12.3824 24.2758 12.8166C24.4014 13.1442 24.551 13.6365 24.5918 14.5437C24.6357 15.5245 24.6453 15.8192 24.6453 18.3023C24.6453 20.7854 24.6357 21.0801 24.5918 22.0609C24.5509 22.9681 24.4014 23.4605 24.2758 23.7881C24.1095 24.2223 23.9103 24.5314 23.5891 24.8569C23.268 25.1826 22.963 25.3842 22.5346 25.5528C22.2116 25.6807 21.7256 25.8319 20.831 25.8734C19.8637 25.918 19.5731 25.9277 17.1232 25.9277C14.673 25.9277 14.3826 25.918 13.4154 25.8734C12.5207 25.8315 12.0352 25.68 11.7115 25.5526C11.2833 25.384 10.9774 25.1824 10.6563 24.8567C10.3351 24.5311 10.1363 24.2217 9.96962 23.7873C9.84403 23.4597 9.69435 22.9673 9.65363 22.0601C9.60966 21.0793 9.60087 20.7847 9.60087 18.3C9.60087 15.8153 9.60966 15.5222 9.65363 14.5414C9.69454 13.6342 9.84403 13.1418 9.96962 12.8139C10.1359 12.3796 10.3351 12.0695 10.6563 11.7438C10.9774 11.4182 11.2833 11.2166 11.7115 11.0476C12.035 10.9196 12.5207 10.7684 13.4154 10.7267C14.2618 10.688 14.5899 10.6764 16.3 10.6744V10.6767ZM22.0212 12.2217C21.4133 12.2217 20.9201 12.7212 20.9201 13.3378C20.9201 13.9542 21.4133 14.4543 22.0212 14.4543C22.6291 14.4543 23.1223 13.9542 23.1223 13.3378C23.1223 12.7214 22.6291 12.2213 22.0212 12.2213V12.2217ZM17.1232 13.5262C14.5209 13.5262 12.411 15.6657 12.411 18.3044C12.411 20.9432 14.5209 23.0817 17.1232 23.0817C19.7255 23.0817 21.8346 20.9432 21.8346 18.3044C21.8346 15.6657 19.7253 13.5262 17.123 13.5262H17.1232ZM17.1232 15.203C18.8123 15.203 20.1818 16.5915 20.1818 18.3044C20.1818 20.0172 18.8123 21.4059 17.1232 21.4059C15.4339 21.4059 14.0645 20.0172 14.0645 18.3044C14.0645 16.5915 15.4339 15.203 17.1232 15.203Z" fill="#1C1D32"/>
</svg>
