<svg width="35" height="35" viewBox="0 0 35 35" fill="none" xmlns="http://www.w3.org/2000/svg">
<circle cx="17.0408" cy="17.0408" r="17.0408" fill="white"/>
<path d="M20.8921 9H18.9009C16.7287 9 15.2805 10.4685 15.2805 12.6712V14.3232H13.4703C13.2893 14.3232 13.1083 14.5068 13.1083 14.6903V17.2601C13.1083 17.4437 13.2893 17.6272 13.4703 17.6272H15.4615V23.8682C15.4615 24.0518 15.6426 24.2354 15.8236 24.2354H18.3579C18.5389 24.2354 18.7199 24.0518 18.7199 23.8682V17.4437H21.0732C21.2542 17.4437 21.4352 17.2601 21.4352 17.0766V14.5068V14.3232H21.2542H18.9009V12.8547C18.9009 12.1205 19.0819 11.7534 19.987 11.7534H21.2542C21.4352 11.7534 21.6162 11.5698 21.6162 11.3863V9.18356C21.2542 9 21.0731 9 20.8921 9Z" fill="#1C1D32"/>
</svg>
