<svg width="35" height="35" viewBox="0 0 35 35" fill="none" xmlns="http://www.w3.org/2000/svg">
<circle cx="17.2041" cy="17.0408" r="17.0408" fill="white"/>
<path d="M23.6833 18.7095V23.6655H20.968V19.0766C20.968 17.9752 20.6059 17.0574 19.5198 17.0574C18.7957 17.0574 18.2527 17.6081 18.0717 18.1588C18.0717 18.3423 17.8906 18.5259 17.8906 18.893V23.6655H15.1753C15.1753 23.6655 15.1753 15.9561 15.1753 15.2218H17.8906V16.3232C18.2527 15.7725 18.9768 14.8547 20.4249 14.8547C22.2351 14.8547 23.6833 16.1396 23.6833 18.7095ZM12.279 11C11.3739 11 10.6498 11.5507 10.6498 12.4685C10.6498 13.2027 11.1929 13.9369 12.279 13.9369C13.1841 13.9369 13.9082 13.2027 13.9082 12.4685C13.7272 11.5507 13.1841 11 12.279 11ZM10.8309 23.482H13.5462V15.0383H10.8309V23.482Z" fill="#1C1D32"/>
</svg>
