<svg width="33" height="33" viewBox="0 0 33 33" fill="none" xmlns="http://www.w3.org/2000/svg">
<path d="M16.399 0.118645C18.5129 0.118645 20.6269 0.111682 22.7407 0.121309C23.9642 0.126857 25.1638 0.295574 26.3203 0.726501C28.1152 1.39533 29.5945 2.49508 30.755 4.03213C31.6267 5.18682 32.2342 6.47313 32.5049 7.89938C32.6443 8.63397 32.7436 9.38878 32.7478 10.1351C32.7721 14.5035 32.7719 18.8721 32.7612 23.2405C32.7561 25.282 32.2197 27.1781 31.0848 28.8778C30.3657 29.9549 29.4717 30.8727 28.3839 31.5653C27.8224 31.9227 27.1893 32.163 26.5983 32.4753C25.9708 32.8068 25.2869 32.8275 24.6138 32.8317C19.5378 32.8629 14.4618 32.8833 9.38571 32.8843C8.54044 32.8845 7.6778 32.8591 6.85532 32.6877C6.18072 32.5471 5.53095 32.2163 4.91176 31.8891C4.14148 31.4821 3.4573 30.933 2.84973 30.2992C1.17273 28.5499 0.209199 26.4706 0.0613767 24.0264C0.0220292 23.376 0.00896704 22.7232 0.00853702 22.0715C0.00595685 18.1108 -0.0151153 14.15 0.0204695 10.1897C0.0518615 6.6989 1.43526 3.87304 4.28467 1.85204C5.72817 0.82821 7.35114 0.219863 9.11974 0.182552C11.5451 0.131372 13.9724 0.16977 16.3989 0.16977C16.399 0.152746 16.399 0.135723 16.399 0.118645ZM16.3654 29.9821C18.4793 29.9821 20.5932 29.9817 22.7071 29.9822C23.6076 29.9824 24.4868 29.876 25.3364 29.5425C26.415 29.1192 27.3166 28.4541 28.0436 27.555C29.0714 26.2841 29.5163 24.8061 29.5151 23.1734C29.5126 19.7022 29.5242 16.231 29.5206 12.7598C29.5194 11.6186 29.5343 10.4746 29.4614 9.33711C29.3568 7.70315 28.6411 6.33705 27.4769 5.21303C26.1665 3.94794 24.5824 3.39659 22.788 3.398C18.6677 3.40132 14.5474 3.3949 10.4271 3.40371C9.84735 3.40496 9.26138 3.42688 8.68923 3.51314C7.04937 3.76029 5.72398 4.58592 4.68471 5.87963C3.65893 7.15653 3.24008 8.64017 3.24546 10.2716C3.25702 13.7609 3.25051 17.2503 3.25868 20.7396C3.26121 21.8176 3.24202 22.8985 3.31244 23.9727C3.4344 25.8329 4.27575 27.34 5.68984 28.5177C6.90644 29.5308 8.32311 29.9822 9.88933 29.9821C12.048 29.9817 14.2067 29.9818 16.3654 29.9821Z" fill="#FBB040"/>
<path d="M16.3798 25.222C11.7369 25.2538 7.93855 21.3687 7.94532 16.688C7.95209 12.0144 11.7592 8.14805 16.3907 8.15137C21.0283 8.15463 24.8251 12.032 24.8251 16.699C24.8252 21.3896 21.013 25.2606 16.3798 25.222ZM16.3839 11.393C13.5358 11.3938 11.1633 13.7919 11.16 16.6732C11.1567 19.5558 13.5214 21.9574 16.3733 21.9678C19.2274 21.9782 21.6159 19.5623 21.6106 16.6703C21.6054 13.7886 19.2319 11.3921 16.3839 11.393Z" fill="#FBB040"/>
<path d="M26.856 8.17622C26.8521 9.29414 25.9851 10.1799 24.8869 10.188C23.7912 10.196 22.8931 9.28016 22.8985 8.16017C22.9038 7.03807 23.7982 6.14325 24.9034 6.1544C26.0016 6.16539 26.8599 7.05411 26.856 8.17622Z" fill="#FBB040"/>
</svg>
