<svg width="40" height="33" viewBox="0 0 40 33" fill="none" xmlns="http://www.w3.org/2000/svg">
<g clip-path="url(#clip0)">
<path d="M38.0538 30.7695C38.1389 30.7703 38.2233 30.7542 38.3017 30.7221C38.3801 30.69 38.4509 30.6427 38.5096 30.583C38.5684 30.5233 38.6138 30.4526 38.6432 30.3751C38.6725 30.2977 38.6851 30.2153 38.6802 30.133C38.6802 29.6815 38.3991 29.4658 37.8224 29.4658H36.8906V31.8294H37.2411V30.7991H37.6718L37.6816 30.8116L38.3499 31.8294H38.7247L38.0057 30.776L38.0538 30.7695ZM37.6485 30.5328H37.2421V29.7337H37.7572C38.0233 29.7337 38.3266 29.7758 38.3266 30.1134C38.3266 30.5017 38.0197 30.5328 37.6464 30.5328" fill="#FBB040"/>
<path d="M28.9105 27.8072H23.9408V20.2661C23.9408 18.4678 23.9077 16.1529 21.356 16.1529C18.7676 16.1529 18.3716 18.1121 18.3716 20.1351V27.8067H13.4019V12.299H18.1728V14.4183H18.2396C18.717 13.6273 19.407 12.9766 20.2359 12.5354C21.0649 12.0943 22.0018 11.8793 22.9469 11.9133C27.9839 11.9133 28.9126 15.1236 28.9126 19.3L28.9105 27.8072ZM7.79437 10.1792C7.22397 10.1793 6.66633 10.0155 6.19201 9.70853C5.71768 9.40155 5.34798 8.96517 5.1296 8.45459C4.91123 7.94401 4.85399 7.38215 4.96517 6.84005C5.07635 6.29796 5.35094 5.79999 5.7542 5.40911C6.15747 5.01822 6.6713 4.75199 7.23072 4.64406C7.79014 4.53614 8.37001 4.59138 8.89703 4.80279C9.42405 5.01421 9.87453 5.3723 10.1915 5.83179C10.5085 6.29129 10.6777 6.83154 10.6778 7.38423C10.6779 7.75121 10.6034 8.1146 10.4585 8.45366C10.3136 8.79273 10.1013 9.10083 9.83352 9.36036C9.56577 9.6199 9.24785 9.82579 8.89798 9.96629C8.5481 10.1068 8.1731 10.1791 7.79437 10.1792ZM10.2792 27.8072H5.30433V12.299H10.2792V27.8072ZM31.3881 0.118425H2.80706C2.15835 0.111332 1.53324 0.354079 1.06915 0.793323C0.605057 1.23257 0.339948 1.83237 0.332031 2.46094V30.2696C0.339677 30.8985 0.604631 31.4987 1.06871 31.9384C1.53278 32.3781 2.15803 32.6214 2.80706 32.6147H31.3881C32.0384 32.6226 32.6654 32.38 33.1313 31.9404C33.5972 31.5007 33.864 30.8998 33.873 30.2696V2.45893C33.8637 1.82912 33.5968 1.22863 33.1309 0.789399C32.6649 0.350165 32.0381 0.108111 31.3881 0.116418" fill="#FBB040"/>
<path d="M37.6909 28.4131C37.0863 28.4187 36.5085 28.6561 36.084 29.0734C35.6596 29.4907 35.4229 30.0539 35.4258 30.6398C35.4287 31.2256 35.671 31.7866 36.0996 32.1999C36.5282 32.6132 37.1082 32.8452 37.7129 32.8452C38.3176 32.8452 38.8976 32.6132 39.3262 32.1999C39.7548 31.7866 39.9971 31.2256 40 30.6398C40.0029 30.0539 39.7662 29.4907 39.3418 29.0734C38.9173 28.6561 38.3395 28.4187 37.7349 28.4131H37.6909ZM37.6909 32.5915C37.2943 32.5979 36.9047 32.4902 36.5712 32.282C36.2378 32.0738 35.9756 31.7745 35.8177 31.4219C35.6599 31.0694 35.6134 30.6793 35.6843 30.3012C35.7552 29.923 35.9403 29.5738 36.216 29.2975C36.4918 29.0213 36.8459 28.8304 37.2336 28.7492C37.6213 28.668 38.0251 28.6999 38.3941 28.8411C38.763 28.9822 39.0804 29.2262 39.3063 29.5422C39.5321 29.8581 39.6561 30.2319 39.6627 30.6161C39.6627 30.6272 39.6627 30.6377 39.6627 30.6488C39.6738 31.1529 39.4778 31.6406 39.1179 32.0047C38.7579 32.3689 38.2634 32.5796 37.7432 32.5905H37.6914" fill="#FBB040"/>
</g>
<defs>
<clipPath id="clip0">
<rect width="39.6667" height="32.7681" fill="white" transform="translate(0.333984 0.116211)"/>
</clipPath>
</defs>
</svg>
