<svg width="230" height="38" viewBox="0 0 230 38" fill="none" xmlns="http://www.w3.org/2000/svg">
<path d="M4.43713 0.541825L11.8672 19.8669L19.4016 0.541825H23.8387L11.7801 30.5228L0 0.541825H4.43713Z" fill="#1C1D32"/>
<path d="M39.8298 20.5894H27.6842C27.7886 22.0342 28.241 23.1841 29.0415 24.039C29.8419 24.8818 30.8685 25.3032 32.1213 25.3032C33.0958 25.3032 33.902 25.0624 34.54 24.5808C35.1664 24.0992 35.8799 23.2082 36.6803 21.9078L39.9864 23.8222C39.476 24.7253 38.9366 25.5019 38.3681 26.1521C37.7997 26.7902 37.1907 27.32 36.5411 27.7414C35.8915 28.1508 35.1896 28.4518 34.4356 28.6445C33.6816 28.8371 32.8638 28.9335 31.9821 28.9335C29.4533 28.9335 27.4232 28.0906 25.892 26.4049C24.3607 24.7072 23.5951 22.4556 23.5951 19.6502C23.5951 16.8688 24.3375 14.6172 25.8224 12.8954C27.3188 11.1977 29.3025 10.3489 31.7733 10.3489C34.2674 10.3489 36.2395 11.1736 37.6895 12.8232C39.128 14.4607 39.8472 16.7304 39.8472 19.6321L39.8298 20.5894ZM35.8103 17.2662C35.265 15.0989 33.9484 14.0152 31.8603 14.0152C31.3847 14.0152 30.9381 14.0935 30.5205 14.25C30.1029 14.3945 29.7201 14.6112 29.3721 14.9002C29.0357 15.1771 28.7456 15.5143 28.502 15.9116C28.2584 16.3089 28.0728 16.7605 27.9452 17.2662H35.8103Z" fill="#1C1D32"/>
<path d="M48.4778 14.6293V28.4278H44.5627V14.6293H42.8923V10.8365H44.5627V4.38878H48.4778V10.8365H51.5229V14.6293H48.4778Z" fill="#1C1D32"/>
<path d="M54.1852 10.8365H58.1003V12.4078C58.8195 11.6252 59.4576 11.0894 60.0144 10.8004C60.5828 10.4994 61.2556 10.3489 62.0328 10.3489C63.0653 10.3489 64.1441 10.698 65.2693 11.3964L63.4771 15.1169C62.7347 14.5631 62.0096 14.2861 61.302 14.2861C59.1675 14.2861 58.1003 15.9598 58.1003 19.307V28.4278H54.1852V10.8365Z" fill="#1C1D32"/>
<path d="M71.9859 10.8365V28.4278H68.0708V10.8365H71.9859ZM67.4792 3.52186C67.4792 2.81147 67.7286 2.1974 68.2274 1.67966C68.7262 1.16191 69.3236 0.903042 70.0197 0.903042C70.7273 0.903042 71.3305 1.16191 71.8293 1.67966C72.3281 2.18536 72.5775 2.80545 72.5775 3.53992C72.5775 4.2744 72.3281 4.90051 71.8293 5.41825C71.3421 5.936 70.7447 6.19487 70.0371 6.19487C69.3294 6.19487 68.7262 5.936 68.2274 5.41825C67.7286 4.90051 67.4792 4.26838 67.4792 3.52186Z" fill="#1C1D32"/>
<path d="M76.9451 10.8365H80.8776V12.462C82.2464 11.0532 83.7893 10.3489 85.5061 10.3489C87.4782 10.3489 89.0152 10.993 90.1173 12.2814C91.0685 13.3771 91.5441 15.1651 91.5441 17.6454V28.4278H87.6116V18.6027C87.6116 16.8688 87.3796 15.6708 86.9156 15.0086C86.4632 14.3343 85.6395 13.9971 84.4447 13.9971C83.1455 13.9971 82.2232 14.4426 81.678 15.3337C81.1444 16.2126 80.8776 17.7478 80.8776 19.9392V28.4278H76.9451V10.8365Z" fill="#1C1D32"/>
<path d="M108.997 10.8365H112.929V28.4278H108.997V26.5856C107.384 28.1508 105.65 28.9335 103.794 28.9335C101.451 28.9335 99.5135 28.0545 97.9823 26.2966C96.4626 24.5025 95.7028 22.263 95.7028 19.5779C95.7028 16.9411 96.4626 14.7437 97.9823 12.9857C99.5019 11.2278 101.404 10.3489 103.69 10.3489C105.662 10.3489 107.431 11.1917 108.997 12.8774V10.8365ZM99.7049 19.5779C99.7049 21.2636 100.14 22.6362 101.01 23.6958C101.903 24.7674 103.028 25.3032 104.386 25.3032C105.836 25.3032 107.007 24.7855 107.901 23.75C108.794 22.6784 109.24 21.3178 109.24 19.6683C109.24 18.0187 108.794 16.6581 107.901 15.5865C107.007 14.539 105.847 14.0152 104.42 14.0152C103.075 14.0152 101.95 14.545 101.045 15.6046C100.152 16.6762 99.7049 18.0006 99.7049 19.5779Z" fill="#1C1D32"/>
<path d="M143.432 13.9068H154.534V14.8279C154.534 16.923 154.296 18.7773 153.821 20.3907C153.357 21.8837 152.574 23.2804 151.471 24.5808C148.977 27.4946 145.805 28.9515 141.953 28.9515C138.195 28.9515 134.976 27.5428 132.296 24.7253C129.616 21.8958 128.277 18.5003 128.277 14.539C128.277 10.4933 129.64 7.06179 132.366 4.2443C135.092 1.41477 138.409 0 142.319 0C144.418 0 146.379 0.445501 148.2 1.3365C149.94 2.2275 151.651 3.67237 153.333 5.6711L150.445 8.54278C148.241 5.49651 145.555 3.97338 142.388 3.97338C139.546 3.97338 137.162 4.99081 135.237 7.02567C133.311 9.0244 132.348 11.5288 132.348 14.539C132.348 17.6454 133.421 20.2041 135.567 22.2148C137.574 24.0811 139.749 25.0143 142.093 25.0143C144.088 25.0143 145.88 24.3159 147.469 22.9192C149.059 21.5105 149.946 19.8248 150.132 17.8622H143.432V13.9068Z" fill="#1C1D32"/>
<path d="M158.901 10.8365H162.817V12.4078C163.536 11.6252 164.174 11.0894 164.731 10.8004C165.299 10.4994 165.972 10.3489 166.749 10.3489C167.782 10.3489 168.86 10.698 169.986 11.3964L168.193 15.1169C167.451 14.5631 166.726 14.2861 166.018 14.2861C163.884 14.2861 162.817 15.9598 162.817 19.307V28.4278H158.901V10.8365Z" fill="#1C1D32"/>
<path d="M171.117 19.5057C171.117 16.9651 171.992 14.8039 173.744 13.0219C175.496 11.2399 177.63 10.3489 180.148 10.3489C182.676 10.3489 184.822 11.2459 186.586 13.0399C188.326 14.834 189.196 17.0374 189.196 19.6502C189.196 22.2871 188.32 24.4965 186.568 26.2785C184.805 28.0485 182.642 28.9335 180.078 28.9335C177.537 28.9335 175.409 28.0304 173.692 26.2243C171.975 24.4423 171.117 22.2028 171.117 19.5057ZM175.119 19.5779C175.119 21.3359 175.571 22.7266 176.476 23.75C177.404 24.7855 178.628 25.3032 180.148 25.3032C181.679 25.3032 182.903 24.7915 183.819 23.7681C184.735 22.7446 185.194 21.378 185.194 19.6683C185.194 17.9585 184.735 16.5919 183.819 15.5684C182.891 14.533 181.667 14.0152 180.148 14.0152C178.651 14.0152 177.439 14.533 176.511 15.5684C175.583 16.6039 175.119 17.9404 175.119 19.5779Z" fill="#1C1D32"/>
<path d="M197.27 10.8365V20.9325C197.27 23.8463 198.377 25.3032 200.593 25.3032C202.809 25.3032 203.917 23.8463 203.917 20.9325V10.8365H207.832V21.0228C207.832 22.4316 207.664 23.6477 207.327 24.6711C207.002 25.5862 206.44 26.411 205.639 27.1454C204.317 28.3375 202.635 28.9335 200.593 28.9335C198.563 28.9335 196.887 28.3375 195.564 27.1454C194.752 26.411 194.178 25.5862 193.842 24.6711C193.517 23.8523 193.355 22.6362 193.355 21.0228V10.8365H197.27Z" fill="#1C1D32"/>
<path d="M216.689 38H212.773V10.8365H216.689V12.751C218.231 11.1496 219.983 10.3489 221.944 10.3489C224.275 10.3489 226.195 11.2399 227.703 13.0219C229.234 14.7918 230 17.0253 230 19.7224C230 22.3593 229.24 24.5567 227.721 26.3146C226.212 28.0605 224.31 28.9335 222.013 28.9335C220.029 28.9335 218.255 28.1087 216.689 26.4591V38ZM225.998 19.7405C225.998 18.0548 225.557 16.6822 224.675 15.6226C223.782 14.551 222.657 14.0152 221.3 14.0152C219.861 14.0152 218.695 14.533 217.802 15.5684C216.909 16.6039 216.462 17.9645 216.462 19.6502C216.462 21.2997 216.909 22.6603 217.802 23.7319C218.684 24.7795 219.844 25.3032 221.282 25.3032C222.64 25.3032 223.759 24.7734 224.641 23.7139C225.545 22.6543 225.998 21.3298 225.998 19.7405Z" fill="#1C1D32"/>
</svg>
