<svg width="277" height="29" viewBox="0 0 277 29" fill="none" xmlns="http://www.w3.org/2000/svg"><path d="M5.57 5.504v7.358h6.458c1.283 0 2.245-.149 2.886-.446 1.135-.52 1.703-1.548 1.703-3.084 0-1.66-.55-2.775-1.647-3.345-.617-.322-1.542-.483-2.776-.483H5.57zM13.379.748c1.912.037 3.38.272 4.403.706a6.88 6.88 0 012.628 1.914 8.486 8.486 0 011.406 2.304c.346.842.518 1.802.518 2.88 0 1.3-.326 2.582-.98 3.845-.654 1.251-1.733 2.137-3.238 2.657 1.258.508 2.146 1.233 2.664 2.174.53.929.796 2.353.796 4.273v1.84c0 1.25.05 2.1.148 2.545.148.706.493 1.226 1.036 1.56v.688h-6.273a19.753 19.753 0 01-.37-1.468 13.538 13.538 0 01-.24-2.36l-.037-2.545c-.025-1.746-.346-2.91-.963-3.492-.604-.583-1.745-.874-3.423-.874H5.57v10.74H0V.747h13.379zm35.942 4.849H34.888v5.816h13.249v4.756h-13.25v7.042h15.1v4.923H29.318V.748h20.003v4.85zM76.141.748v4.85h-8.16v22.536h-5.737V5.597h-8.197V.747h22.094zm9.889 17.037h6.92L89.545 7.01 86.03 17.785zM86.38.748h6.44l9.659 27.386H96.3l-1.758-5.63H84.493l-1.888 5.63h-5.958L86.381.748zm26.692 27.386h-5.663V.748h5.663v27.386zM120.296.748h5.699V23.21h13.508v4.923h-19.207V.748zm52.196 8.714c0-1.425-.376-2.44-1.129-3.047-.74-.607-1.782-.91-3.127-.91h-5.31v8.063h5.31c1.345 0 2.387-.328 3.127-.985.753-.656 1.129-1.697 1.129-3.121zm5.644-.037c0 3.232-.814 5.518-2.443 6.855-1.628 1.338-3.953 2.007-6.976 2.007h-5.791v9.847h-5.663V.748h11.88c2.739 0 4.922.706 6.55 2.118 1.629 1.412 2.443 3.598 2.443 6.559zm11.869-3.921v7.358h6.458c1.282 0 2.245-.149 2.886-.446 1.135-.52 1.703-1.548 1.703-3.084 0-1.66-.549-2.775-1.647-3.345-.617-.322-1.542-.483-2.776-.483h-6.624zm7.808-4.756c1.912.037 3.38.272 4.404.706a6.88 6.88 0 012.628 1.914 8.477 8.477 0 011.406 2.304c.346.842.518 1.802.518 2.88 0 1.3-.327 2.582-.98 3.845-.654 1.251-1.734 2.137-3.239 2.657 1.259.508 2.147 1.233 2.665 2.174.53.929.796 2.353.796 4.273v1.84c0 1.25.049 2.1.148 2.545.148.706.493 1.226 1.036 1.56v.688h-6.273a19.545 19.545 0 01-.37-1.468 13.606 13.606 0 01-.241-2.36l-.037-2.545c-.024-1.746-.345-2.91-.962-3.492-.604-.583-1.745-.874-3.423-.874h-5.884v10.74h-5.57V.747h13.378zm20.991 27.386h-5.662V.748h5.662v27.386zm12.757-22.63v17.874h5.255c2.69 0 4.565-1.332 5.626-3.995.58-1.461.869-3.202.869-5.22 0-2.788-.438-4.924-1.313-6.41-.864-1.5-2.591-2.249-5.182-2.249h-5.255zm6.218-4.756c1.69.025 3.096.223 4.219.594 1.912.632 3.46 1.79 4.644 3.475a12.203 12.203 0 011.943 4.422c.346 1.585.518 3.096.518 4.533 0 3.642-.728 6.726-2.183 9.253-1.974 3.406-5.021 5.11-9.141 5.11h-11.75V.747h11.75zm37.7 4.849h-14.433v5.816h13.249v4.756h-13.249v7.042h15.099v4.923h-20.669V.748h20.003v4.85z" fill="#fff"/></svg>