<svg width="189" height="44" viewBox="0 0 189 44" fill="none" xmlns="http://www.w3.org/2000/svg"><path d="M54.623 24.776h1.571l4.788 10.156 4.863-10.156h1.572l-6.285 13.146h-.314l-6.195-13.146zm22.355 9.918l1.16.551c-.382.682-.824 1.227-1.317 1.649a5.448 5.448 0 01-1.684.953c-.62.218-1.331.327-2.117.327-1.743 0-3.105-.517-4.092-1.56-.98-1.041-1.474-2.22-1.474-3.528 0-1.232.419-2.336 1.25-3.303 1.054-1.226 2.468-1.846 4.241-1.846 1.826 0 3.277.627 4.37 1.887.77.892 1.167 1.995 1.182 3.33h-9.622c.03 1.131.427 2.057 1.19 2.78.77.721 1.713 1.082 2.843 1.082.546 0 1.077-.088 1.586-.258a4.31 4.31 0 001.317-.688c.359-.28.748-.743 1.167-1.376zm0-2.63c-.187-.667-.45-1.198-.8-1.6-.352-.402-.816-.722-1.392-.967a4.594 4.594 0 00-1.818-.368c-1.048 0-1.953.307-2.709.92-.553.45-.965 1.117-1.249 2.016h7.968zm4.047-7.492h1.422v3.61h2.17v1.09h-2.17v8.65h-1.422v-8.65h-1.87v-1.09h1.87v-3.61zm5.163 3.61h1.421v1.424c.427-.559.868-.98 1.34-1.26.47-.28.957-.416 1.473-.416.382 0 .793.11 1.235.334l-.726 1.056c-.292-.116-.539-.17-.733-.17-.464 0-.913.17-1.34.517-.433.34-.755.879-.987 1.6-.172.553-.262 1.676-.262 3.366v3.296h-1.421v-9.747zm7.025-3.998c.314 0 .583.102.8.307.225.204.33.45.33.735a.95.95 0 01-.33.722 1.14 1.14 0 01-.8.307c-.307 0-.569-.102-.793-.307a.936.936 0 01-.33-.722c0-.286.113-.531.33-.735.224-.205.486-.307.793-.307zm-.666 3.998h1.347v9.74h-1.347v-9.74zm4.264 0h1.347v1.744c.546-.667 1.16-1.165 1.826-1.498a4.787 4.787 0 012.177-.498c.8 0 1.504.184 2.125.552a3.424 3.424 0 011.369 1.498c.292.627.441 1.601.441 2.93v5.012h-1.347v-4.645c0-1.124-.052-1.873-.149-2.248-.157-.647-.464-1.13-.92-1.45-.457-.327-1.04-.49-1.774-.49-.83 0-1.578.251-2.237.748-.658.505-1.092 1.124-1.301 1.86-.135.484-.195 1.369-.195 2.65v3.569h-1.347v-9.734h-.014zm22.894 0v9.74h-1.347v-1.675c-.576.64-1.212 1.117-1.93 1.444a5.621 5.621 0 01-2.334.483c-1.504 0-2.783-.497-3.853-1.498-1.07-1.001-1.594-2.214-1.594-3.65 0-1.404.539-2.603 1.609-3.597 1.07-.995 2.364-1.499 3.875-1.499.876 0 1.661.17 2.365.511.703.34 1.324.852 1.855 1.533v-1.792h1.354zm-5.514.968c-.763 0-1.474.17-2.117.51a3.927 3.927 0 00-1.549 1.444 3.698 3.698 0 00-.576 1.969c0 .688.195 1.342.576 1.968a4.11 4.11 0 001.556 1.465 4.38 4.38 0 002.095.524 4.59 4.59 0 002.14-.518c.673-.347 1.19-.81 1.556-1.403.367-.592.546-1.253.546-1.995 0-1.124-.404-2.071-1.219-2.827-.808-.756-1.811-1.137-3.008-1.137zm28.34-2.173l-1.122.967a8.725 8.725 0 00-2.648-1.642c-.958-.374-1.893-.558-2.806-.558a7.156 7.156 0 00-3.239.763c-1.025.504-1.818 1.192-2.387 2.063-.561.866-.845 1.785-.845 2.752 0 .988.291 1.935.875 2.82.583.892 1.391 1.594 2.416 2.105 1.025.51 2.155.763 3.382.763 1.489 0 2.746-.382 3.771-1.145s1.638-1.75 1.825-2.983h-4.616v-1.294h6.247c-.015 2.07-.673 3.685-1.99 4.883-1.317 1.2-3.075 1.792-5.274 1.792-2.671 0-4.788-.831-6.352-2.486-1.197-1.274-1.796-2.752-1.796-4.428a6.33 6.33 0 011.033-3.48c.688-1.076 1.631-1.914 2.828-2.52 1.197-.606 2.558-.906 4.07-.906 1.227 0 2.379.204 3.456.606 1.093.395 2.147 1.042 3.172 1.928zm2.836 1.205h1.421v1.424c.427-.559.868-.98 1.34-1.26.471-.28.957-.416 1.473-.416.382 0 .794.11 1.235.334l-.726 1.056c-.292-.116-.538-.17-.733-.17-.464 0-.913.17-1.339.517-.434.34-.756.879-.98 1.6-.172.553-.262 1.676-.262 3.366v3.296h-1.422v-9.747h-.007zm11.664-.238c1.646 0 3.015.545 4.092 1.628.988.988 1.474 2.159 1.474 3.514 0 1.363-.524 2.548-1.564 3.563-1.04 1.014-2.379 1.525-4.01 1.525-1.638 0-2.985-.51-4.025-1.525-1.04-1.015-1.564-2.207-1.564-3.563 0-1.348.494-2.52 1.474-3.507 1.1-1.09 2.469-1.635 4.123-1.635zm-.008 1.226c-1.144 0-2.125.381-2.948 1.151s-1.234 1.703-1.234 2.793c0 .701.187 1.362.561 1.968a3.86 3.86 0 001.519 1.41 4.459 4.459 0 002.102.497 4.46 4.46 0 002.103-.497 3.864 3.864 0 001.518-1.41 3.692 3.692 0 00.561-1.968c0-1.09-.411-2.023-1.234-2.793-.831-.77-1.811-1.151-2.948-1.151zm7.946-.988h1.346v4.543c0 1.11.068 1.873.195 2.289.194.6.576 1.07 1.13 1.417.553.347 1.219.517 1.982.517.771 0 1.422-.17 1.953-.504.538-.333.905-.776 1.107-1.328.135-.374.21-1.171.21-2.39v-4.544h1.421v4.775c0 1.342-.172 2.35-.516 3.031a3.7 3.7 0 01-1.549 1.594c-.688.381-1.556.579-2.596.579s-1.908-.191-2.611-.58a3.69 3.69 0 01-1.564-1.607c-.344-.688-.516-1.723-.516-3.105v-4.687h.008zm12.419 0h1.347v1.805c.583-.68 1.212-1.192 1.915-1.532.703-.34 1.496-.511 2.364-.511 1.519 0 2.821.497 3.898 1.492 1.077.994 1.624 2.193 1.624 3.596 0 1.43-.539 2.65-1.609 3.644-1.07 1.001-2.364 1.498-3.875 1.498a5.696 5.696 0 01-2.35-.483c-.71-.32-1.361-.804-1.975-1.437v5.203h-1.347V28.182h.008zm5.514.968c-1.19 0-2.192.381-3.008 1.137-.815.756-1.219 1.696-1.219 2.827 0 .735.179 1.403.546 1.995.359.593.883 1.056 1.556 1.403a4.615 4.615 0 002.14.518c.741 0 1.436-.177 2.08-.524a4.047 4.047 0 001.556-1.465c.389-.626.576-1.28.576-1.968s-.195-1.349-.576-1.969a3.961 3.961 0 00-1.541-1.444 4.398 4.398 0 00-2.11-.51zM1.197 16.058H0v27.245h1.197V16.06zm2.843 0H2.843v27.245H4.04V16.06zm5.985 0H7.93v27.245h2.095V16.06zm3.517 0h-2.32v27.245h2.32V16.06zm2.169 0h-.523v27.245h.523V16.06zm-8.529 0h-.748v27.245h.748V16.06zm10.624 0h-.524v27.245h.524V16.06zm3.517 0h-1.646v27.245h1.646V16.06zm2.767 0h-1.496v27.245h1.497V16.06zm2.395 0h-.3v27.245h.3V16.06zm1.645 0h-.373v27.245h.374V16.06zm1.647 0h-.374v27.245h.374V16.06zm1.72 0h-.374v27.245h.374V16.06zm2.17 0h-.374v27.245h.374V16.06zm2.918 0h-1.197v27.245h1.197V16.06zm2.095 0h-1.197v27.245h1.197V16.06zm3.516 0h-1.795v27.245h1.795V16.06zm2.394 0h-1.72v27.245h1.72V16.06zM18.21 1.32c1.788-.096 3.689 1.02 5.634 3.323 1.96 2.316 3.987 5.858 6.015 10.53h.95C26.634 5.481 22.467.57 18.427.57c-.09 0-.187 0-.277.007-2.992.156-5.745 2.915-8.2 8.194-1.144 2.472-1.945 4.89-2.394 6.395h.92c.42-1.396 1.205-3.766 2.305-6.13 2.282-4.91 4.848-7.58 7.43-7.717z" fill="#fff"/><path d="M24.637.57c-.09 0-.187 0-.277.007-2.993.156-5.746 2.915-8.2 8.194-1.152 2.472-1.945 4.89-2.394 6.395h.92c.427-1.403 1.212-3.787 2.312-6.15 2.282-4.897 4.848-7.56 7.422-7.697 1.78-.095 3.688 1.022 5.633 3.324 1.96 2.316 3.98 5.858 6.016 10.53h.95C32.837 5.481 28.677.57 24.637.57z" fill="#fff"/></svg>